<?xml version="1.0" encoding="utf-8"?>
<!-- Generator: Adobe Illustrator 15.0.0, SVG Export Plug-In . SVG Version: 6.00 Build 0)  -->
<!DOCTYPE svg PUBLIC "-//W3C//DTD SVG 1.1//EN" "http://www.w3.org/Graphics/SVG/1.1/DTD/svg11.dtd">
<svg version="1.1" id="Layer_1" xmlns="http://www.w3.org/2000/svg" xmlns:xlink="http://www.w3.org/1999/xlink" x="0px" y="0px"
	 width="800px" height="600px" viewBox="0 0 800 600" enable-background="new 0 0 800 600" xml:space="preserve">
<rect x="0.004" y="0.012" fill="#FFFFFF" width="800" height="600"/>
<g>
	<g>
		<path fill="#636466" d="M421.641,272.268c0,3.619-2.973,6.849-6.85,6.849c-2.973,0-5.557,0.776-7.754,2.456
			c-2.455,1.552-4.394,3.748-5.944,6.203c-3.102,4.136-4.651,9.046-5.298,10.854v24.554c0,3.748-3.23,6.85-7.107,6.85
			c-3.748,0-6.849-3.102-6.849-6.85v-50.916c0-3.748,3.101-6.72,6.849-6.72c3.877,0,7.107,2.973,7.107,6.72v0.905
			c0.775-0.905,1.809-1.938,2.714-2.585c4.265-2.842,9.821-5.169,16.282-5.04C418.668,265.548,421.641,268.521,421.641,272.268z"/>
		<path fill="#636466" d="M417.846,297.726c0.13-17.575,13.828-32.307,31.531-32.307c16.8,0,30.11,12.535,31.145,29.98
			c0,0.13,0,0.389,0,0.646c0,0.259,0,0.904-0.129,1.163c-0.389,3.102-3.102,5.17-6.721,5.17h-41.094
			c0.646,2.973,2.067,6.332,4.394,8.529c2.714,3.102,7.883,5.426,12.405,5.814c4.652,0.387,10.209-0.775,13.44-3.23
			c2.713-2.844,8.012-2.455,9.692-0.389c1.68,1.811,2.972,5.688,0,8.4c-6.333,5.814-13.957,8.529-23.133,8.529
			C431.674,329.904,417.976,315.301,417.846,297.726z M431.932,291.394h36.571c-1.292-5.169-7.883-12.793-19.126-13.698
			C438.394,278.212,432.966,286.096,431.932,291.394z"/>
		<path fill="#636466" d="M546.363,323.055c0,3.748-3.102,6.979-6.979,6.979c-3.489,0-6.202-2.455-6.849-5.557
			c-4.91,3.359-11.113,5.557-17.575,5.557c-17.445,0-31.402-14.732-31.402-32.178c0-17.705,13.957-32.437,31.402-32.437
			c6.333,0,12.535,2.067,17.316,5.427v-24.294c0-3.748,3.102-6.979,7.107-6.979c3.877,0,6.979,3.231,6.979,6.979v51.174
			c0,0,0,0,0,0.13V323.055z M514.961,279.505c-4.652,0-8.917,1.938-12.146,5.298c-3.231,3.231-5.17,7.882-5.17,13.052
			c0,4.91,1.938,9.562,5.17,12.793c3.229,3.361,7.494,5.299,12.146,5.299c4.781,0,8.917-1.938,12.147-5.299
			c3.23-3.23,5.169-7.883,5.169-12.793c0-5.17-1.938-9.821-5.169-13.052C523.878,281.443,519.742,279.505,514.961,279.505z"/>
		<path fill="#636466" d="M570.949,249.266c0,3.877-2.972,7.107-6.979,7.107c-3.877,0-6.978-3.23-6.978-7.107v-2.714
			c0-3.877,3.101-6.979,6.978-6.979c4.007,0,6.979,3.102,6.979,6.979V249.266z M570.949,272.656v50.399
			c0,3.877-2.972,6.979-6.979,6.979c-3.877,0-6.978-3.102-6.978-6.979v-50.399c0-4.135,3.101-7.108,6.978-7.108
			C567.978,265.548,570.949,268.521,570.949,272.656z"/>
		<path fill="#636466" d="M579.833,311.553c2.326-3.1,6.85-3.488,9.692-1.033c3.36,2.844,9.176,5.814,14.215,5.686
			c3.489,0,6.72-1.162,8.788-2.455c1.809-1.551,2.325-2.842,2.325-3.877c0-0.646-0.129-0.904-0.387-1.293
			c-0.13-0.387-0.646-0.904-1.681-1.549c-1.809-1.293-5.686-2.715-10.338-3.619h-0.129c-4.007-0.775-7.884-1.809-11.243-3.361
			c-3.489-1.679-6.591-4.005-8.917-7.494c-1.421-2.326-2.196-5.169-2.196-8.141c0-5.945,3.36-10.985,7.624-14.216
			c4.523-3.101,9.951-4.781,15.896-4.781c8.916,0,15.248,4.265,19.384,7.107c3.102,2.068,4.006,6.333,2.067,9.562
			c-2.067,3.102-6.332,4.007-9.562,1.81c-4.135-2.713-7.754-4.782-11.889-4.782c-3.231,0-6.074,1.034-7.754,2.326
			c-1.68,1.164-2.067,2.327-2.067,2.973c0,0.516,0,0.646,0.258,1.033c0.13,0.258,0.517,0.775,1.422,1.292
			c1.681,1.163,5.04,2.326,9.434,3.102l0.129,0.13h0.13c4.265,0.774,8.271,1.938,12.018,3.747c3.489,1.551,6.979,4.006,9.176,7.624
			c1.551,2.584,2.455,5.557,2.455,8.529c0,6.332-3.489,11.631-8.142,14.99c-4.652,3.23-10.468,5.17-16.8,5.17
			c-10.079-0.129-17.833-4.781-23.002-8.916C577.895,318.791,577.508,314.396,579.833,311.553z"/>
	</g>
	<g>
		<path fill="#A41E11" d="M334.774,339.535c-9.078,4.732-56.106,24.068-66.118,29.287c-10.012,5.221-15.574,5.17-23.483,1.389
			s-57.955-23.996-66.97-28.305c-4.506-2.154-6.875-3.971-6.875-5.688c0-1.713,0-17.195,0-17.195s65.153-14.184,75.672-17.957
			c10.518-3.774,14.167-3.91,23.118-0.631c8.952,3.279,62.474,12.936,71.321,16.176c0,0-0.004,15.357-0.004,16.951
			C341.436,335.262,339.395,337.127,334.774,339.535z"/>
		<path fill="#D82C20" d="M334.774,322.336c-9.078,4.73-56.106,24.068-66.118,29.287c-10.012,5.221-15.574,5.17-23.483,1.389
			c-7.91-3.779-57.955-23.998-66.97-28.305c-9.015-4.309-9.204-7.275-0.348-10.742c8.855-3.469,58.626-22.996,69.146-26.77
			c10.518-3.772,14.167-3.91,23.118-0.63c8.952,3.279,55.699,21.886,64.545,25.126C343.512,314.934,343.852,317.604,334.774,322.336
			z"/>
		<path fill="#A41E11" d="M334.774,311.496c-9.078,4.732-56.106,24.068-66.118,29.289c-10.012,5.219-15.574,5.168-23.483,1.387
			c-7.91-3.779-57.955-23.996-66.97-28.305c-4.506-2.154-6.875-3.969-6.875-5.686c0-1.713,0-17.197,0-17.197
			s65.153-14.183,75.672-17.957c10.518-3.773,14.167-3.91,23.118-0.631c8.952,3.279,62.474,12.934,71.321,16.175
			c0,0-0.004,15.357-0.004,16.953C341.436,307.223,339.395,309.088,334.774,311.496z"/>
		<path fill="#D82C20" d="M334.774,294.297c-9.078,4.732-56.106,24.068-66.118,29.289c-10.012,5.219-15.574,5.168-23.483,1.387
			c-7.91-3.779-57.955-23.997-66.97-28.305c-9.015-4.308-9.204-7.274-0.348-10.743c8.855-3.467,58.626-22.995,69.146-26.768
			c10.518-3.773,14.167-3.91,23.118-0.631c8.952,3.279,55.699,21.885,64.545,25.126
			C343.512,286.894,343.852,289.565,334.774,294.297z"/>
		<path fill="#A41E11" d="M334.774,282.419c-9.078,4.732-56.106,24.069-66.118,29.29c-10.012,5.219-15.574,5.168-23.483,1.387
			c-7.91-3.779-57.955-23.997-66.97-28.305c-4.506-2.154-6.875-3.97-6.875-5.686c0-1.714,0-17.197,0-17.197
			s65.153-14.183,75.672-17.956c10.518-3.774,14.167-3.91,23.118-0.631c8.952,3.279,62.474,12.934,71.321,16.175
			c0,0-0.004,15.357-0.004,16.952C341.436,278.146,339.395,280.011,334.774,282.419z"/>
		<path fill="#D82C20" d="M334.774,265.22c-9.078,4.732-56.106,24.069-66.118,29.289c-10.012,5.219-15.574,5.168-23.483,1.388
			s-57.955-23.997-66.97-28.305c-9.015-4.308-9.204-7.275-0.348-10.743c8.855-3.468,58.626-22.994,69.146-26.768
			c10.518-3.774,14.167-3.91,23.118-0.63c8.952,3.279,55.699,21.885,64.545,25.126C343.512,257.817,343.852,260.489,334.774,265.22z
			"/>
		<polygon fill="#FFFFFF" points="259.055,240.78 270.272,237.111 267.236,244.379 278.667,248.657 263.933,250.186 260.631,258.13 
			255.296,249.269 238.277,247.74 250.978,243.157 247.168,236.128 		"/>
		<polygon fill="#FFFFFF" points="259.753,287.181 232.236,275.771 271.656,269.72 		"/>
		<ellipse fill="#FFFFFF" cx="221.612" cy="261.241" rx="21.069" ry="8.167"/>
	</g>
	<polygon fill="#7A0C00" points="296.094,250.826 319.421,260.053 296.107,269.257 	"/>
	<polygon fill="#AD2115" points="296.094,250.826 296.107,269.257 293.582,270.253 270.281,261.036 	"/>
</g>
</svg>
